# xmcd
#
# Track frame offsets:
#	150
#	15357
#	27942
#	45159
#	61115
#	79059
#	94801
#	111243
#	125361
#	140064
#	154482
#	167594
#
# Disc length: 2425 seconds
#
# Revision: 1
# Processed by: cddbd v1.5.2PL0 Copyright (c) Steve Scherf et al.
# Submitted via: audiograbber 1.83.01
#
DISCID=9009770c
DTITLE=Willie Mack - Headlights and Tailpipes
DYEAR=2007
DGENRE=Country
TTITLE0=Gonna Get Me A Cadillac
TTITLE1=Don't Waste Your Pretty
TTITLE2=Golden Years
TTITLE3="
TTITLE4=You've Gotta Blame Somethin
TTITLE5=Headlights and Tailpipes
TTITLE6=Another Sky
TTITLE7=Love You I Do
TTITLE8=T.G.I.F.
TTITLE9=Blacktop Time
TTITLE10=Sumpin' Sumpin'
TTITLE11=That Was Then and This is Wow
EXTD=
EXTT0=
EXTT1=
EXTT2=
EXTT3=
EXTT4=
EXTT5=
EXTT6=
EXTT7=
EXTT8=
EXTT9=
EXTT10=
EXTT11=
PLAYORDER=
